<?xml version="1.0" encoding="UTF-8"?>
<svg id="Layer_1" data-name="Layer 1" xmlns="http://www.w3.org/2000/svg" xmlns:xlink="http://www.w3.org/1999/xlink" viewBox="0 0 900 200" width="250" height="70">
  <defs>
    <style>
      .cls-1 {
        fill: url(#linear-gradient);
      }
    </style>
    <linearGradient id="linear-gradient" x1="38.96" y1="103.54" x2="198.79" y2="-23.89" gradientUnits="userSpaceOnUse">
      <stop offset="0" stop-color="#3d40e8"/>
      <stop offset=".09" stop-color="#4141e7"/>
      <stop offset=".2" stop-color="#4f46e7"/>
      <stop offset=".31" stop-color="#674de6"/>
      <stop offset=".43" stop-color="#8758e4"/>
      <stop offset=".55" stop-color="#b166e3"/>
    </linearGradient>
  </defs>
  <g>
    <path id="fullLogo" d="M858.66,31.39h-2.45v-12.66h-4.38v-2.23h11.21v2.23h-4.38v12.66Z"/>
    <path id="fullLogo-2" data-name="fullLogo" d="M872.91,26.94l.49,2.25h.34l.49-2.25,2.98-10.45h4.79v14.89h-2.45v-12.7h-.64l-3.64,12.7h-3.4l-3.64-12.7h-.64v12.7h-2.45v-14.89h4.79l2.98,10.45Z"/>
    <path id="fullLogo-3" data-name="fullLogo" d="M292.37,69.48v33.12h-16.7v-30.63c0-6.76-.41-12.14-3.86-17.25-2.62-3.73-6.62-5.66-11.18-5.66-7.18,0-15.45,6.9-15.45,19.87v33.67h-16.7v-30.63c0-6.76-.41-12.14-4-17.25-2.48-3.73-6.48-5.66-11.04-5.66-7.31,0-15.59,6.9-15.59,19.87v33.67h-16.56V36.64l15.45-1.38v10.21c5.24-7.18,13.66-10.49,20.97-10.49,9.24,0,15.73,3.45,20.42,8.83,1.38,1.66,2.48,3.59,3.45,5.52,4.83-9.8,14.76-14.35,23.32-14.35,9.24,0,15.73,3.45,20.42,8.83,5.93,6.76,7.04,17.8,7.04,25.66Z"/>
    <path id="fullLogo-4" data-name="fullLogo" d="M303.41,68.79c0-19.04,16.28-34.36,36.84-34.36s36.98,15.32,36.98,34.36-16.42,34.5-36.98,34.5-36.84-15.32-36.84-34.5Zm56.71,0c0-11.59-8.69-20.7-19.87-20.7s-19.73,9.11-19.73,20.7,8.56,20.84,19.73,20.84,19.87-8.97,19.87-20.84Z"/>
    <path id="fullLogo-5" data-name="fullLogo" d="M499.49,69.48v33.12h-16.7v-30.63c0-6.76-.41-12.14-3.86-17.25-2.62-3.73-6.62-5.66-11.18-5.66-7.18,0-15.45,6.9-15.45,19.87v33.67h-16.7v-30.63c0-6.76-.41-12.14-4-17.25-2.48-3.73-6.48-5.66-11.04-5.66-7.31,0-15.59,6.9-15.59,19.87v33.67h-16.56V36.64l15.45-1.38v10.21c5.24-7.18,13.66-10.49,20.97-10.49,9.24,0,15.73,3.45,20.42,8.83,1.38,1.66,2.48,3.59,3.45,5.52,4.83-9.8,14.76-14.35,23.32-14.35,9.24,0,15.73,3.45,20.42,8.83,5.93,6.76,7.04,17.8,7.04,25.66Z"/>
    <path id="fullLogo-6" data-name="fullLogo" d="M580.21,73.76h-52.16c.83,8.42,8.83,16.7,21.11,16.7,8.97,0,15.18-3.04,20.01-6.76l7.73,10.62c-7.04,5.52-16.56,8.97-28.98,8.97-24.01,0-37.39-16.83-37.39-34.36,0-19.59,14.76-34.36,35.32-34.36s34.63,13.25,34.63,34.36c0,1.38,0,3.59-.28,4.83Zm-52.02-10.9h35.46c-.28-8.42-6.76-15.59-17.66-15.59-8.28,0-16.28,5.66-17.8,15.59Z"/>
    <path id="fullLogo-7" data-name="fullLogo" d="M658.04,67.83v34.77h-16.7v-30.36c0-6.48-.41-12.56-3.73-16.97-3.04-4-6.76-6.21-12.56-6.21-9.38,0-16.83,9.24-16.83,21.52v32.01h-16.56V36.64l15.45-1.38v11.87c5.11-8.14,13.66-12.14,22.77-12.14s16.01,4,20.7,9.11c5.66,6.07,7.45,14.49,7.45,23.73Z"/>
    <path id="fullLogo-8" data-name="fullLogo" d="M712.96,98.6c-4,2.48-8.55,3.73-15.04,3.73-17.11,0-22.35-12.01-22.35-23.87v-28.15h-10.9l1.38-13.66h9.52V19.12l16.7-2.62v20.15h18.77l-1.38,13.66h-17.39v26.08c0,8.69,4.28,11.73,8.97,11.73,3.04,0,5.24-.97,7.17-2.21l4.55,12.69Z"/>
    <path id="fullLogo-9" data-name="fullLogo" d="M722.62,68.65V36.64l16.97-1.38v35.05c0,13.38,7.17,19.46,16.56,19.46s16.42-6.07,16.42-19.46V36.64l17.11-1.38v33.39c0,21.8-12.28,34.63-33.53,34.63s-33.53-12.83-33.53-34.63Z"/>
    <path id="fullLogo-10" data-name="fullLogo" d="M799.89,96.25l8-12.14c3.17,3.31,9.11,6.07,14.49,6.07s9.52-2.62,9.52-7.18c0-4.97-4.97-6.9-12.14-9.93-9.52-4-16.83-9.11-16.83-18.77,0-10.21,9.52-19.59,24.01-19.59,9.11,0,16.42,2.48,20.84,5.8l-7.04,11.04c-2.21-1.79-6.76-3.86-11.59-3.86-5.38,0-9.24,2.48-9.24,6.62,0,5.11,6.07,7.31,12.69,10.07,9.94,4.14,16.56,9.24,16.56,18.08,0,10.35-8.83,20.84-27.32,20.84-7.45,0-15.59-2.07-21.94-7.04Z"/>
    <path id="fullLogo-11" data-name="fullLogo" class="cls-1" d="M148.01,34.59l-51.96,20.78L116.83,3.41h-13.85l-19.98,49.95L63.03,3.41h-13.85l20.78,51.96L18,34.59v13.85l49.95,19.98-49.95,19.98v13.85l51.96-20.78-20.78,51.96h13.85l19.98-49.95,19.98,49.95h13.85l-20.78-51.96,51.96,20.78v-13.85l-49.95-19.98,49.95-19.98v-13.85Zm-68.04,41.29h-4.44v-14.94h14.94v14.94h-10.5Z"/>
  </g>
  <g>
    <path d="M677.42,131.95c0,10.86-7.8,17.46-20.4,17.46-2.46,0-4.38-.12-6.06-.42v11.64h-8.88v-45h16.26c11.94,0,19.08,6.78,19.08,16.32Zm-9.18,.18c0-4.68-2.94-8.64-10.56-8.64h-6.72v17.76c1.62,.3,3.54,.42,5.88,.42,8.34,0,11.4-3.9,11.4-9.54Z"/>
    <path d="M708.8,127.27v8.58c-1.14-.48-2.52-.84-4.32-.84-5.28,0-9.42,3.12-9.42,9.18v16.44h-8.7v-32.88h8.04v5.7c1.74-3.78,5.94-6.6,11.1-6.6,1.14,0,2.46,.18,3.3,.42Z"/>
    <path d="M715.58,117.13c0-2.76,2.1-4.26,5.4-4.26s5.4,1.5,5.4,4.26-1.98,4.2-5.4,4.2-5.4-1.5-5.4-4.2Zm1.08,10.62h8.58v32.88h-8.58v-32.88Z"/>
    <path d="M771.38,153.61v6.9c-1.08,.66-2.94,1.08-4.74,1.08-4.26,0-7.5-2.76-7.98-6.96-.36,.78-.96,1.62-1.62,2.34-2.4,2.58-6.36,4.62-11.1,4.62-6.06,0-10.2-3.78-10.26-9.12,0-2.7,.9-4.68,2.4-6.12,2.46-2.52,6.54-3.48,10.38-4.26,3.84-.78,7.56-1.32,9.06-2.82,.48-.48,.72-1.08,.72-1.74,0-1.8-1.8-3.3-6.48-3.3-5.22,0-10.86,2.1-14.58,4.38v-7.98c3.42-1.86,9.12-3.78,14.76-3.78,9.9,0,14.22,4.02,14.22,10.86v13.32c0,2.22,1.44,3.18,2.94,3.18,.96,0,1.68-.24,2.28-.6Zm-12.6-8.88c-1.38,1.2-3.72,1.68-6.18,2.16-2.88,.6-5.76,1.08-7.26,2.64-.6,.6-.96,1.32-.96,2.34,0,1.98,1.86,3.3,4.2,3.3,2.52,0,4.98-1.14,6.9-3.12,1.92-1.92,3.12-4.44,3.3-7.32Z"/>
    <path d="M807.26,127.75l-16.92,33.66h-1.02l-16.86-33.66h9l8.46,18.78,8.4-18.78h8.94Z"/>
    <path d="M847.28,153.61v6.9c-1.08,.66-2.94,1.08-4.74,1.08-4.26,0-7.5-2.76-7.98-6.96-.36,.78-.96,1.62-1.62,2.34-2.4,2.58-6.36,4.62-11.1,4.62-6.06,0-10.2-3.78-10.26-9.12,0-2.7,.9-4.68,2.4-6.12,2.46-2.52,6.54-3.48,10.38-4.26,3.84-.78,7.56-1.32,9.06-2.82,.48-.48,.72-1.08,.72-1.74,0-1.8-1.8-3.3-6.48-3.3-5.22,0-10.86,2.1-14.58,4.38v-7.98c3.42-1.86,9.12-3.78,14.76-3.78,9.9,0,14.22,4.02,14.22,10.86v13.32c0,2.22,1.44,3.18,2.94,3.18,.96,0,1.68-.24,2.28-.6Zm-12.6-8.88c-1.38,1.2-3.72,1.68-6.18,2.16-2.88,.6-5.76,1.08-7.26,2.64-.6,.6-.96,1.32-.96,2.34,0,1.98,1.86,3.3,4.2,3.3,2.52,0,4.98-1.14,6.9-3.12,1.92-1.92,3.12-4.44,3.3-7.32Z"/>
  </g>
</svg>