<?xml version="1.0" encoding="UTF-8"?>
<svg id="Layer_1" data-name="Layer 1" xmlns="http://www.w3.org/2000/svg" xmlns:xlink="http://www.w3.org/1999/xlink" viewBox="0 0 864 172.3483">
  <defs>
    <linearGradient id="linear-gradient" x1="20.959" y1="100.127" x2="180.7858" y2="-27.3024" gradientUnits="userSpaceOnUse">
      <stop offset="0" stop-color="#3d40e8"/>
      <stop offset=".0922" stop-color="#4141e7"/>
      <stop offset=".199" stop-color="#4f46e7"/>
      <stop offset=".3132" stop-color="#674de6"/>
      <stop offset=".4325" stop-color="#8758e4"/>
      <stop offset=".5544" stop-color="#b166e3"/>
    </linearGradient>
  </defs>
  <path id="fullLogo" d="M840.6612,27.9776h-2.4471V15.3181h-4.3826v-2.2331h11.2123v2.2331h-4.3826v12.6595Z" style="fill: #fff;"/>
  <path id="fullLogo-2" data-name="fullLogo" d="M854.9139,23.5308l.4902,2.2545h.3404l.4883-2.2545,2.9801-10.4458h4.7872v14.8926h-2.4471V15.2753h-.638l-3.6395,12.7023h-3.4041l-3.6376-12.7023h-.638v12.7023h-2.4471V13.085h4.7872l2.9781,10.4458Z" style="fill: #fff;"/>
  <path id="fullLogo-3" data-name="fullLogo" d="M274.3724,66.0708v33.1164h-16.6963v-30.6329c0-6.761-.4135-12.1427-3.8627-17.2484-2.6222-3.7253-6.6235-5.6566-11.1771-5.6566-7.1757,0-15.4545,6.8984-15.4545,19.8694v33.6686h-16.6963v-30.6329c0-6.761-.4135-12.1427-4.0014-17.2484-2.4835-3.7253-6.4849-5.6566-11.0384-5.6566-7.3131,0-15.5919,6.8984-15.5919,19.8694v33.6686h-16.5588V33.2305l15.4545-1.3804v10.2114c5.2431-7.1757,13.6606-10.4875,20.9737-10.4875,9.2445,0,15.7306,3.4504,20.4215,8.8322,1.3804,1.6553,2.4835,3.5866,3.4492,5.5192,4.8296-9.7979,14.7649-14.3514,23.3198-14.3514,9.2445,0,15.7306,3.4504,20.4215,8.8322,5.9339,6.761,7.037,17.7994,7.037,25.6647Z" style="fill: #fff;"/>
  <path id="fullLogo-4" data-name="fullLogo" d="M285.4132,65.3812c0-19.0423,16.2827-34.3582,36.8417-34.3582s36.9804,15.3159,36.9804,34.3582c0,19.1786-16.4202,34.4956-36.9804,34.4956s-36.8417-15.3171-36.8417-34.4956Zm56.7111,0c0-11.5918-8.6923-20.6976-19.8694-20.6976s-19.7319,9.1058-19.7319,20.6976c0,11.8655,8.5561,20.8351,19.7319,20.8351s19.8694-8.9696,19.8694-20.8351Z" style="fill: #fff;"/>
  <path id="fullLogo-5" data-name="fullLogo" d="M481.4909,66.0708v33.1164h-16.6963v-30.6329c0-6.761-.4135-12.1427-3.8627-17.2484-2.6222-3.7253-6.6235-5.6566-11.1771-5.6566-7.1757,0-15.4545,6.8984-15.4545,19.8694v33.6686h-16.6963v-30.6329c0-6.761-.4135-12.1427-4.0014-17.2484-2.4835-3.7253-6.4849-5.6566-11.0384-5.6566-7.3131,0-15.5919,6.8984-15.5919,19.8694v33.6686h-16.5588V33.2305l15.4545-1.3804v10.2114c5.2431-7.1757,13.6606-10.4875,20.9737-10.4875,9.2445,0,15.7306,3.4504,20.4215,8.8322,1.3804,1.6553,2.4835,3.5866,3.4492,5.5192,4.8296-9.7979,14.7649-14.3514,23.3198-14.3514,9.2445,0,15.7306,3.4504,20.4215,8.8322,5.9339,6.761,7.037,17.7994,7.037,25.6647Z" style="fill: #fff;"/>
  <path id="fullLogo-6" data-name="fullLogo" d="M562.2138,70.3483h-52.1576c.827,8.4162,8.831,16.6963,21.1111,16.6963,8.9696,0,15.1784-3.0357,20.008-6.7622l7.7266,10.6249c-7.037,5.5192-16.5576,8.9696-28.9764,8.9696-24.0094,0-37.3939-16.8337-37.3939-34.3582,0-19.5933,14.7649-34.3582,35.3239-34.3582,20.008,0,34.6343,13.2471,34.6343,34.3582,0,1.3792,0,3.5878-.2761,4.8296Zm-52.0202-10.901h35.4625c-.2761-8.4175-6.7622-15.5919-17.6619-15.5919-8.2788,0-16.2827,5.6566-17.8006,15.5919Z" style="fill: #fff;"/>
  <path id="fullLogo-7" data-name="fullLogo" d="M640.0373,64.4143v34.7729h-16.6951v-30.3568c0-6.4849-.4147-12.5563-3.7265-16.9723-3.0357-4.0014-6.761-6.2088-12.5563-6.2088-9.3831,0-16.8337,9.2445-16.8337,21.5247v32.0133h-16.5588V33.2305l15.4545-1.3804v11.8667c5.1057-8.1402,13.6606-12.1427,22.7676-12.1427s16.0067,4.0026,20.6976,9.1071c5.6579,6.0714,7.4506,14.4888,7.4506,23.7333Z" style="fill: #fff;"/>
  <path id="fullLogo-8" data-name="fullLogo" d="M694.9593,95.1847c-4.0014,2.4847-8.5549,3.7265-15.0398,3.7265-17.1098,0-22.3541-12.0053-22.3541-23.872v-28.1482h-10.8998l1.3792-13.6606h9.5206V15.706l16.6963-2.621v20.1455h18.7663l-1.3804,13.6606h-17.3859v26.0782c0,8.6935,4.2774,11.7292,8.9696,11.7292,3.0357,0,5.2431-.9657,7.1745-2.2074l4.5535,12.6937Z" style="fill: #fff;"/>
  <path id="fullLogo-9" data-name="fullLogo" d="M704.6185,65.2426V33.2305l16.9723-1.3804v35.0478c0,13.3845,7.1745,19.4559,16.5576,19.4559,9.2457,0,16.4202-6.0714,16.4202-19.4559V33.2305l17.1098-1.3804v33.3925c0,21.802-12.2802,34.6343-33.53,34.6343-21.3872,0-33.53-12.8323-33.53-34.6343Z" style="fill: #fff;"/>
  <path id="fullLogo-10" data-name="fullLogo" d="M781.8911,92.8398l8.0027-12.1427c3.1743,3.3118,9.1071,6.0714,14.4888,6.0714,5.2431,0,9.5206-2.6222,9.5206-7.1757,0-4.967-4.967-6.8984-12.1427-9.9341-9.5206-4.0026-16.8337-9.1071-16.8337-18.7663,0-10.2114,9.5206-19.5933,24.0094-19.5933,9.1071,0,16.4202,2.4835,20.8351,5.7953l-7.037,11.0384c-2.2074-1.7939-6.761-3.8639-11.5906-3.8639-5.3818,0-9.2445,2.4835-9.2445,6.6235,0,5.1057,6.0714,7.3131,12.6937,10.0727,9.9353,4.14,16.5588,9.2445,16.5588,18.0755,0,10.3488-8.831,20.8363-27.3212,20.8363-7.4518,0-15.5919-2.07-21.9394-7.037Z" style="fill: #fff;"/>
  <path id="fullLogo-11" data-name="fullLogo" d="M130.0149,31.1822l-51.9637,20.7813L98.8326,0h-13.8487l-19.9765,49.9511L45.0311,0h-13.8486l20.7813,51.9635L0,31.1822v13.8483l49.9512,19.9767L0,84.9835v13.8489l51.9637-20.7813-20.7813,51.9635h13.8486l19.9765-49.9511,19.9763,49.9511h13.8487l-20.7815-51.964,51.9639,20.7818v-13.8489l-49.9511-19.9762,49.9511-19.9767v-13.8483ZM61.9733,72.4769h-4.4355v-14.9393h14.9391v14.9393h-10.5037Z" style="fill: url(#linear-gradient);"/>
  <path id="fullLogo-12" data-name="fullLogo" d="M444.3181,155.6392c-1.9859,1.2331-4.2454,1.8485-7.4644,1.8485-8.492,0-11.0932-5.9576-11.0932-11.8472v-13.9693h-5.4104l.6847-6.7797h4.7257v-8.6975l8.2852-1.3012v9.9987h9.3141l-.6847,6.7797h-8.6294v12.9429c0,4.3135,2.1233,5.8202,4.4521,5.8202,1.5067,0,2.6024-.4791,3.5607-1.0957l2.2595,6.3006Z" style="fill: #fff;"/>
  <path id="fullLogo-13" data-name="fullLogo" d="M481.1645,143.3129h-25.8857c.411,4.1773,4.3828,8.2865,10.4779,8.2865,4.4509,0,7.5325-1.5067,9.9294-3.3564l3.8356,5.273c-3.4926,2.7399-8.2184,4.4521-14.3815,4.4521-11.9153,0-18.5588-8.3546-18.5588-17.052,0-9.7251,7.3282-17.052,17.5312-17.052,9.9306,0,17.1895,6.5742,17.1895,17.052,0,.6847,0,1.7804-.1374,2.3969Zm-25.8176-5.4104h17.6005c-.1374-4.1773-3.3564-7.738-8.7656-7.738-4.1092,0-8.0809,2.808-8.8349,7.738Z" style="fill: #fff;"/>
  <path id="fullLogo-14" data-name="fullLogo" d="M485.4828,140.8478c0-9.9987,8.492-16.9839,18.4226-16.9839,4.2454,0,8.2852,1.1638,11.1613,3.1497l-3.5607,5.7533c-1.5067-1.165-4.3147-2.1914-7.1908-2.1914-5.8202,0-10.4085,4.1773-10.4085,10.203,0,5.9576,4.4509,10.4779,10.546,10.4779,2.9442,0,6.027-1.0957,8.0128-2.465l3.0123,5.7521c-2.9442,2.1914-7.0533,3.4245-11.5042,3.4245-11.2306,0-18.4907-7.9447-18.4907-17.1201Z" style="fill: #fff;"/>
  <path id="fullLogo-15" data-name="fullLogo" d="M554.4474,140.3675v17.2576h-8.2865v-15.0662c0-3.2178-.2055-6.2313-1.8485-8.4227-1.5067-1.9859-3.3552-3.0816-6.2325-3.0816-4.6564,0-8.2852,4.5883-8.2852,10.6834v15.887h-8.2865v-49.3065l8.0116-.6847v21.9821c2.6024-3.6981,6.5742-5.5466,10.957-5.5466,4.5202,0,7.9447,1.9859,10.2723,4.5202,2.808,3.0123,3.6981,7.1895,3.6981,11.7779Z" style="fill: #fff;"/>
  <path id="fullLogo-16" data-name="fullLogo" d="M595.1987,140.3675v17.2576h-8.2865v-15.0662c0-3.2178-.2055-6.2313-1.8485-8.4227-1.5067-1.9859-3.3552-3.0816-6.2325-3.0816-4.6564,0-8.3546,4.5883-8.3546,10.6834v15.887h-8.2171v-32.7336l7.6699-.6847v5.8895c2.5331-4.0411,6.7797-6.027,11.2987-6.027s7.9447,1.9859,10.2723,4.5202c2.808,3.0123,3.6981,7.1895,3.6981,11.7779Z" style="fill: #fff;"/>
  <path id="fullLogo-17" data-name="fullLogo" d="M601.1624,140.8478c0-9.4515,8.0809-17.052,18.2852-17.052s18.3533,7.6006,18.3533,17.052c0,9.5184-8.1503,17.1201-18.3533,17.1201s-18.2852-7.6018-18.2852-17.1201Zm28.1465,0c0-5.7533-4.3147-10.2723-9.8613-10.2723s-9.7932,4.519-9.7932,10.2723c0,5.8883,4.2466,10.3404,9.7932,10.3404s9.8613-4.4521,9.8613-10.3404Z" style="fill: #fff;"/>
  <path id="fullLogo-18" data-name="fullLogo" d="M644.1732,145.7779v-37.4593l8.2865-.6847v36.9802c0,4.3828,1.9859,5.8202,4.6564,5.8202,1.4386,0,2.3288-.4791,3.219-1.0957l1.8497,6.3006c-1.9178,1.4386-4.1773,1.8485-7.1227,1.8485-6.5061,0-10.8889-3.6969-10.8889-11.7098Z" style="fill: #fff;"/>
  <path id="fullLogo-19" data-name="fullLogo" d="M663.762,140.8478c0-9.4515,8.0809-17.052,18.2852-17.052s18.3533,7.6006,18.3533,17.052c0,9.5184-8.1503,17.1201-18.3533,17.1201s-18.2852-7.6018-18.2852-17.1201Zm28.1465,0c0-5.7533-4.3147-10.2723-9.8613-10.2723s-9.7932,4.519-9.7932,10.2723c0,5.8883,4.2466,10.3404,9.7932,10.3404s9.8613-4.4521,9.8613-10.3404Z" style="fill: #fff;"/>
  <path id="fullLogo-20" data-name="fullLogo" d="M740.3296,124.2068v29.5146c0,10.7515-7.4656,18.6269-19.449,18.6269-6.7797,0-11.4361-2.2595-14.2441-4.519l3.7662-5.8895c2.808,2.2595,6.3006,3.5607,10.6141,3.5607,6.9171,0,11.5736-4.93,11.5736-10.8889v-1.8485c-2.6024,3.0135-6.5742,4.9994-11.5736,4.9994-8.149,0-16.4355-6.6435-16.4355-16.8465,0-10.4098,8.6294-16.8465,16.4355-16.8465,4.7257,0,8.8349,1.9859,11.5736,5.2049v-4.3828l7.7392-.6847Zm-8.1503,16.641c0-6.0951-4.3135-10.4098-9.5865-10.4098-5.3423,0-9.7251,4.3828-9.7251,10.4098,0,6.0938,4.3828,10.4766,9.7251,10.4766s9.5865-4.3135,9.5865-10.4766Z" style="fill: #fff;"/>
  <path id="fullLogo-21" data-name="fullLogo" d="M748.0725,113.0443c0-2.7399,2.3969-5.1368,5.2049-5.1368,2.7386,0,5.2049,2.3969,5.2049,5.1368,0,2.8761-2.4662,5.273-5.2049,5.273-2.808,0-5.2049-2.3969-5.2049-5.273Zm1.0276,11.8472l8.2865-.6847v33.4182h-8.2865v-32.7336Z" style="fill: #fff;"/>
  <path id="fullLogo-22" data-name="fullLogo" d="M798.8869,143.3129h-25.8857c.411,4.1773,4.3828,8.2865,10.4779,8.2865,4.4509,0,7.5325-1.5067,9.9294-3.3564l3.8356,5.273c-3.4926,2.7399-8.2184,4.4521-14.3815,4.4521-11.9153,0-18.5588-8.3546-18.5588-17.052,0-9.7251,7.3282-17.052,17.5312-17.052,9.9306,0,17.1895,6.5742,17.1895,17.052,0,.6847,0,1.7804-.1374,2.3969Zm-25.8176-5.4104h17.6005c-.1374-4.1773-3.3564-7.738-8.7656-7.738-4.1092,0-8.0809,2.808-8.8349,7.738Z" style="fill: #fff;"/>
  <path id="fullLogo-23" data-name="fullLogo" d="M803.0009,154.4754l3.9718-6.027c1.5748,1.6442,4.519,3.0135,7.1895,3.0135,2.6024,0,4.7257-1.3012,4.7257-3.5607,0-2.465-2.465-3.4245-6.027-4.9313-4.7245-1.9859-8.3546-4.519-8.3546-9.3128,0-5.0675,4.7257-9.7251,11.9165-9.7251,4.519,0,8.149,1.2331,10.3404,2.8761l-3.4926,5.4797c-1.0957-.8914-3.3552-1.9178-5.7521-1.9178-2.6705,0-4.5883,1.2319-4.5883,3.2871,0,2.5331,3.0135,3.6288,6.3006,4.9994,4.93,2.054,8.2171,4.5883,8.2171,8.9711,0,5.1356-4.3828,10.3404-13.5594,10.3404-3.6981,0-7.738-1.0276-10.8877-3.4926Z" style="fill: #fff;"/>
</svg>